<svg width="24" height="24" viewBox="0 0 24 24" fill="none" xmlns="http://www.w3.org/2000/svg">
<path d="M16.8184 3.81348L16.8237 4.31345L18.6179 4.29443L17.0724 3.38281L16.8184 3.81348ZM11.0459 8.2207L10.5651 8.08364L10.565 8.08366L11.0459 8.2207ZM15.2207 15.7236L15.0836 16.2045L15.0837 16.2045L15.2207 15.7236ZM21.2666 14.0859L21.7545 14.1953L22.146 12.4486L20.906 13.7396L21.2666 14.0859ZM12 2.5V3C13.6669 3 15.2259 3.45466 16.5643 4.24414L16.8184 3.81348L17.0724 3.38281C15.585 2.5055 13.8514 2 12 2V2.5ZM16.8184 3.81348L16.8131 3.3135C13.9791 3.34354 11.3819 5.21782 10.5651 8.08364L11.0459 8.2207L11.5267 8.35776C12.2188 5.92969 14.4199 4.33892 16.8237 4.31345L16.8184 3.81348ZM11.0459 8.2207L10.565 8.08366C9.57041 11.5737 11.5937 15.2097 15.0836 16.2045L15.2207 15.7236L15.3578 15.2428C12.3989 14.3994 10.6835 11.3166 11.5268 8.35774L11.0459 8.2207ZM15.2207 15.7236L15.0837 16.2045C17.5066 16.895 19.9974 16.1291 21.6272 14.4323L21.2666 14.0859L20.906 13.7396C19.5219 15.1806 17.4101 15.8277 15.3577 15.2428L15.2207 15.7236ZM21.2666 14.0859L20.7787 13.9766C19.8778 17.9964 16.2905 21 12 21V21.5V22C16.7692 22 20.7535 18.6613 21.7545 14.1953L21.2666 14.0859ZM12 21.5V21C7.02944 21 3 16.9706 3 12H2.5H2C2 17.5229 6.47716 22 12 22V21.5ZM2.5 12H3C3 7.02944 7.02944 3 12 3V2.5V2C6.47716 2 2 6.47716 2 12H2.5Z" fill="black"/>
</svg>
