<svg width="24" height="24" viewBox="0 0 24 24" fill="none" xmlns="http://www.w3.org/2000/svg">
<path d="M21 12C21 16.9706 16.9706 21 12 21C7.02944 21 3 16.9706 3 12C3 7.02944 7.02944 3 12 3C16.9706 3 21 7.02944 21 12Z" stroke="black"/>
<path d="M16 12C16 16.9706 14.2091 21 12 21C9.79086 21 8 16.9706 8 12C8 7.02944 9.79086 3 12 3C14.2091 3 16 7.02944 16 12Z" stroke="black"/>
<path d="M21 12C21 13.6569 16.9707 15 12 15C7.0293 15 3 13.6569 3 12C3 10.3431 7.0293 9 12 9C16.9707 9 21 10.3431 21 12Z" stroke="black"/>
</svg>
